<svg width="162" height="162" viewBox="0 0 162 162" fill="none" xmlns="http://www.w3.org/2000/svg">
<path opacity="0.3" fill-rule="evenodd" clip-rule="evenodd" d="M37.2674 117.563C38.3443 118.848 39.4868 120.097 40.6947 121.305C41.9027 122.513 43.1514 123.656 44.4365 124.732L37.2674 117.563ZM53.4412 130.912L31.0879 108.559C30.0501 106.681 29.1263 104.758 28.3165 102.798L59.2016 133.683C57.2421 132.873 55.3186 131.95 53.4412 130.912ZM63.6517 135.308C65.0185 135.744 66.3984 136.126 67.7883 136.456L25.5438 94.2116C25.8736 95.6015 26.2561 96.9814 26.6914 98.3481L63.6517 135.308ZM24.8201 90.6626L71.3372 137.18C72.491 137.377 73.6496 137.539 74.8115 137.665L24.3347 87.1884C24.4609 88.3502 24.6226 89.5089 24.8201 90.6626ZM24.0844 84.1129L77.887 137.915C78.9106 137.971 79.9355 137.999 80.9604 138L23.9998 81.0394C24.0005 82.0643 24.0287 83.0892 24.0844 84.1129ZM24.0644 78.2788L83.721 137.935C84.6516 137.891 85.5813 137.824 86.5092 137.735L24.2651 75.4906C24.1755 76.4185 24.1086 77.3483 24.0644 78.2788ZM24.5655 72.9659L89.0339 137.434C89.8917 137.313 90.7473 137.172 91.5999 137.011L24.9885 70.4C24.828 71.2526 24.687 72.1081 24.5655 72.9659ZM25.4789 68.0652L93.9346 136.521C94.732 136.336 95.5262 136.134 96.3166 135.914L26.0859 65.6833C25.8662 66.4736 25.6639 67.2678 25.4789 68.0652ZM26.7371 63.5093L98.4905 135.263C99.2357 135.023 99.977 134.768 100.714 134.497L27.5028 61.2861C27.2319 62.0229 26.9766 62.7641 26.7371 63.5093ZM28.2952 59.2533L102.747 133.705C103.445 133.417 104.139 133.114 104.828 132.797L29.2024 57.1716C28.8855 57.8606 28.5831 58.5547 28.2952 59.2533ZM30.1222 55.2662L106.734 131.878C107.39 131.546 108.041 131.2 108.686 130.841L31.1586 53.3138C30.7997 53.9592 30.4542 54.6102 30.1222 55.2662ZM32.1961 51.526L110.474 129.804C111.09 129.431 111.701 129.045 112.306 128.647L33.3529 49.694C32.9546 50.2989 32.569 50.9097 32.1961 51.526ZM34.5009 48.0168L113.983 127.499C114.562 127.087 115.134 126.664 115.701 126.228L35.7719 46.2989C35.3361 46.8653 34.9125 47.4381 34.5009 48.0168ZM37.0255 44.7273L117.273 124.974C117.815 124.526 118.351 124.066 118.881 123.594L38.4061 43.119C37.9343 43.6485 37.4741 44.1847 37.0255 44.7273ZM39.7618 41.6495L120.35 122.238C120.671 121.932 120.989 121.621 121.305 121.305C121.489 121.121 121.671 120.936 121.852 120.751L41.2491 40.1479C41.0634 40.3287 40.8786 40.5111 40.6947 40.6949C40.3793 41.0104 40.0683 41.3286 39.7618 41.6495ZM42.705 38.7786L123.221 119.295C123.698 118.77 124.163 118.239 124.616 117.701L44.2987 37.3835C43.7609 37.837 43.2296 38.3021 42.705 38.7786ZM45.8563 36.1159L125.884 116.144C126.325 115.582 126.753 115.014 127.17 114.441L47.5592 34.8299C46.9854 35.2465 46.4176 35.6752 45.8563 36.1159ZM49.2218 33.6673L128.332 112.778C128.736 112.178 129.127 111.573 129.505 110.962L51.0381 32.4947C50.4269 32.8729 49.8214 33.2638 49.2218 33.6673ZM52.8105 31.4419L130.558 109.189C130.922 108.549 131.273 107.904 131.611 107.254L54.7463 30.3888C54.0957 30.7265 53.4504 31.0775 52.8105 31.4419ZM56.6352 29.4526L132.547 105.365C132.87 104.682 133.178 103.994 133.473 103.301L58.6988 28.5273C58.0062 28.8214 57.3181 29.1298 56.6352 29.4526ZM60.7137 27.717L134.283 101.286C134.56 100.556 134.822 99.8216 135.069 99.083L62.9168 26.9312C62.1782 27.1776 61.4437 27.4395 60.7137 27.717ZM65.0707 26.2599L135.74 96.9291C135.967 96.1464 136.177 95.3598 136.37 94.5698L67.43 25.6302C66.64 25.823 65.8534 26.0329 65.0707 26.2599ZM69.7416 25.1167L136.883 92.2583C137.052 91.4147 137.202 90.5681 137.333 89.7191L72.2807 24.6669C71.4317 24.7976 70.5851 24.9475 69.7416 25.1167ZM74.7775 24.3386L137.661 87.2223C137.761 86.3055 137.839 85.3868 137.895 84.467L77.5328 24.1049C76.613 24.1606 75.6943 24.2385 74.7775 24.3386ZM80.2578 24.0048L137.995 81.742C138.008 80.732 137.994 79.7217 137.954 78.7122L83.2876 24.0456C82.2782 24.0053 81.2679 23.9917 80.2578 24.0048ZM86.3138 24.2467L137.753 75.686C137.647 74.5462 137.507 73.4091 137.332 72.2762L89.7237 24.6676C88.5907 24.4931 87.4536 24.3528 86.3138 24.2467ZM93.1936 25.3124L136.687 68.8062C136.393 67.4567 136.05 66.1158 135.657 64.7864L97.2134 26.3433C95.884 25.9502 94.5431 25.6066 93.1936 25.3124ZM101.49 27.7951L134.205 60.5094C133.502 58.6806 132.701 56.8807 131.802 55.1178L106.882 30.1978C105.119 29.2992 103.319 28.4983 101.49 27.7951ZM114.079 34.5694L127.43 47.921C125.621 45.3876 123.579 42.9691 121.305 40.6949C119.031 38.4207 116.612 36.3789 114.079 34.5694Z" fill="url(#paint0_linear)"/>
<defs>
<linearGradient id="paint0_linear" x1="40.6947" y1="40.6949" x2="122.719" y2="122.719" gradientUnits="userSpaceOnUse">
<stop stop-color="white"/>
<stop offset="1" stop-color="white" stop-opacity="0"/>
</linearGradient>
</defs>
</svg>
