<svg width="32" height="32" viewBox="0 0 32 32" fill="none" xmlns="http://www.w3.org/2000/svg">
<path d="M31.4666 1.60004C31.2 1.33338 30.6666 1.33337 30.2666 1.33337L22.6666 3.60004V30.4L31.0666 28C31.6 27.8667 32 27.3334 32 26.6667V2.66671C32 2.26671 31.8666 1.86671 31.4666 1.60004Z" fill="#D6B1FF"/>
<path d="M20 3.6001L12 1.6001V28.4001L20 30.4001V3.6001Z" fill="#2EC5CE"/>
<path d="M9.33333 1.6001L0.933334 4.0001C0.400001 4.26676 0 4.8001 0 5.33343V29.3334C0 29.7334 0.133333 30.1334 0.533333 30.4001C0.799999 30.5334 1.06667 30.6668 1.33333 30.6668H1.73333L9.33333 28.4001V1.6001Z" fill="#B50005"/>
</svg>
